<mxfile host="app.diagrams.net" modified="2024-05-17T01:09:57.185Z" agent="Mozilla/5.0 (Windows NT 10.0; Win64; x64) AppleWebKit/537.36 (KHTML, like Gecko) Chrome/121.0.0.0 Safari/537.36" etag="4Agxn4Z5AE76pUfSoFoC" version="24.4.2" type="github">
  <diagram name="페이지-1" id="5GlDXz7wqQFoL7S_a34d">
    <mxGraphModel dx="1434" dy="738" grid="1" gridSize="10" guides="1" tooltips="1" connect="1" arrows="1" fold="1" page="1" pageScale="1" pageWidth="827" pageHeight="1169" math="0" shadow="0">
      <root>
        <mxCell id="0" />
        <mxCell id="1" parent="0" />
        <mxCell id="3UhIyN17JrQopI0e8cMA-27" value="" style="rounded=0;whiteSpace=wrap;html=1;" parent="1" vertex="1">
          <mxGeometry x="10" y="60" width="760" height="560" as="geometry" />
        </mxCell>
        <mxCell id="3UhIyN17JrQopI0e8cMA-1" value="" style="rounded=1;whiteSpace=wrap;html=1;" parent="1" vertex="1">
          <mxGeometry x="100" y="80" width="519" height="520" as="geometry" />
        </mxCell>
        <mxCell id="3UhIyN17JrQopI0e8cMA-2" value="&lt;font style=&quot;font-size: 17px;&quot;&gt;Schedule Management System&lt;/font&gt;" style="text;html=1;align=center;verticalAlign=middle;whiteSpace=wrap;rounded=0;" parent="1" vertex="1">
          <mxGeometry x="239.5" y="100" width="240" height="40" as="geometry" />
        </mxCell>
        <mxCell id="3UhIyN17JrQopI0e8cMA-8" value="check All Schedule" style="ellipse;whiteSpace=wrap;html=1;" parent="1" vertex="1">
          <mxGeometry x="344" y="240" width="140" height="60" as="geometry" />
        </mxCell>
        <mxCell id="3UhIyN17JrQopI0e8cMA-9" value="check Selected Schedule" style="ellipse;whiteSpace=wrap;html=1;" parent="1" vertex="1">
          <mxGeometry x="344" y="320" width="140" height="60" as="geometry" />
        </mxCell>
        <mxCell id="3UhIyN17JrQopI0e8cMA-10" value="update Selected Schedule" style="ellipse;whiteSpace=wrap;html=1;" parent="1" vertex="1">
          <mxGeometry x="344" y="400" width="140" height="60" as="geometry" />
        </mxCell>
        <mxCell id="3UhIyN17JrQopI0e8cMA-11" value="Add Schedule" style="ellipse;whiteSpace=wrap;html=1;" parent="1" vertex="1">
          <mxGeometry x="344" y="160" width="140" height="60" as="geometry" />
        </mxCell>
        <mxCell id="3UhIyN17JrQopI0e8cMA-12" value="delete Selected Schedule" style="ellipse;whiteSpace=wrap;html=1;" parent="1" vertex="1">
          <mxGeometry x="344" y="480" width="140" height="60" as="geometry" />
        </mxCell>
        <mxCell id="3UhIyN17JrQopI0e8cMA-19" value="User" style="shape=umlActor;verticalLabelPosition=bottom;verticalAlign=top;html=1;outlineConnect=0;" parent="1" vertex="1">
          <mxGeometry x="700" y="290" width="30" height="60" as="geometry" />
        </mxCell>
        <mxCell id="3UhIyN17JrQopI0e8cMA-22" value="" style="endArrow=none;html=1;rounded=0;entryX=0;entryY=0.3333333333333333;entryDx=0;entryDy=0;entryPerimeter=0;exitX=1;exitY=0.5;exitDx=0;exitDy=0;" parent="1" source="3UhIyN17JrQopI0e8cMA-11" target="3UhIyN17JrQopI0e8cMA-19" edge="1">
          <mxGeometry width="50" height="50" relative="1" as="geometry">
            <mxPoint x="460" y="380" as="sourcePoint" />
            <mxPoint x="510" y="330" as="targetPoint" />
          </mxGeometry>
        </mxCell>
        <mxCell id="3UhIyN17JrQopI0e8cMA-23" value="" style="endArrow=none;html=1;rounded=0;exitX=1;exitY=0.5;exitDx=0;exitDy=0;entryX=0.333;entryY=0.333;entryDx=0;entryDy=0;entryPerimeter=0;" parent="1" source="3UhIyN17JrQopI0e8cMA-8" target="3UhIyN17JrQopI0e8cMA-19" edge="1">
          <mxGeometry width="50" height="50" relative="1" as="geometry">
            <mxPoint x="494" y="200" as="sourcePoint" />
            <mxPoint x="710" y="320" as="targetPoint" />
          </mxGeometry>
        </mxCell>
        <mxCell id="3UhIyN17JrQopI0e8cMA-24" value="" style="endArrow=none;html=1;rounded=0;exitX=1;exitY=0.5;exitDx=0;exitDy=0;entryX=0;entryY=0.3333333333333333;entryDx=0;entryDy=0;entryPerimeter=0;" parent="1" source="3UhIyN17JrQopI0e8cMA-9" target="3UhIyN17JrQopI0e8cMA-19" edge="1">
          <mxGeometry width="50" height="50" relative="1" as="geometry">
            <mxPoint x="494" y="280" as="sourcePoint" />
            <mxPoint x="710" y="327" as="targetPoint" />
          </mxGeometry>
        </mxCell>
        <mxCell id="3UhIyN17JrQopI0e8cMA-25" value="" style="endArrow=none;html=1;rounded=0;exitX=1;exitY=0.5;exitDx=0;exitDy=0;entryX=0;entryY=1;entryDx=0;entryDy=0;entryPerimeter=0;" parent="1" target="3UhIyN17JrQopI0e8cMA-19" edge="1">
          <mxGeometry width="50" height="50" relative="1" as="geometry">
            <mxPoint x="484" y="430" as="sourcePoint" />
            <mxPoint x="700" y="390" as="targetPoint" />
          </mxGeometry>
        </mxCell>
        <mxCell id="3UhIyN17JrQopI0e8cMA-26" value="" style="endArrow=none;html=1;rounded=0;exitX=1;exitY=0.5;exitDx=0;exitDy=0;" parent="1" target="3UhIyN17JrQopI0e8cMA-19" edge="1">
          <mxGeometry width="50" height="50" relative="1" as="geometry">
            <mxPoint x="484" y="510" as="sourcePoint" />
            <mxPoint x="700" y="470" as="targetPoint" />
          </mxGeometry>
        </mxCell>
        <mxCell id="95eS8gWYD-RmjnxjiEU5-1" value="check password" style="ellipse;whiteSpace=wrap;html=1;" vertex="1" parent="1">
          <mxGeometry x="130" y="320" width="120" height="70" as="geometry" />
        </mxCell>
        <mxCell id="95eS8gWYD-RmjnxjiEU5-3" value="" style="endArrow=classic;html=1;rounded=0;dashed=1;exitX=0;exitY=0;exitDx=0;exitDy=0;entryX=0.942;entryY=0.229;entryDx=0;entryDy=0;entryPerimeter=0;" edge="1" parent="1" source="3UhIyN17JrQopI0e8cMA-10" target="95eS8gWYD-RmjnxjiEU5-1">
          <mxGeometry x="0.1407" y="-48" relative="1" as="geometry">
            <mxPoint x="262.2924169586876" y="350.00300681519633" as="sourcePoint" />
            <mxPoint x="117.70999999999978" y="388.33377966355584" as="targetPoint" />
            <Array as="points" />
            <mxPoint as="offset" />
          </mxGeometry>
        </mxCell>
        <mxCell id="95eS8gWYD-RmjnxjiEU5-4" value="&amp;lt;&amp;lt;include&amp;gt;&amp;gt;" style="edgeLabel;resizable=0;html=1;;align=center;verticalAlign=middle;" connectable="0" vertex="1" parent="95eS8gWYD-RmjnxjiEU5-3">
          <mxGeometry relative="1" as="geometry" />
        </mxCell>
        <mxCell id="95eS8gWYD-RmjnxjiEU5-5" value="" style="endArrow=classic;html=1;rounded=0;dashed=1;exitX=0;exitY=0;exitDx=0;exitDy=0;entryX=1;entryY=0.5;entryDx=0;entryDy=0;" edge="1" parent="1" source="3UhIyN17JrQopI0e8cMA-12" target="95eS8gWYD-RmjnxjiEU5-1">
          <mxGeometry x="0.1407" y="-48" relative="1" as="geometry">
            <mxPoint x="344" y="515" as="sourcePoint" />
            <mxPoint x="250" y="380" as="targetPoint" />
            <Array as="points" />
            <mxPoint as="offset" />
          </mxGeometry>
        </mxCell>
        <mxCell id="95eS8gWYD-RmjnxjiEU5-6" value="&amp;lt;&amp;lt;include&amp;gt;&amp;gt;" style="edgeLabel;resizable=0;html=1;;align=center;verticalAlign=middle;" connectable="0" vertex="1" parent="95eS8gWYD-RmjnxjiEU5-5">
          <mxGeometry relative="1" as="geometry" />
        </mxCell>
        <mxCell id="95eS8gWYD-RmjnxjiEU5-8" value="wrong password Error" style="ellipse;whiteSpace=wrap;html=1;" vertex="1" parent="1">
          <mxGeometry x="130" y="430" width="120" height="70" as="geometry" />
        </mxCell>
        <mxCell id="95eS8gWYD-RmjnxjiEU5-9" value="" style="endArrow=classic;html=1;rounded=0;dashed=1;exitX=1;exitY=1;exitDx=0;exitDy=0;entryX=0;entryY=0.5;entryDx=0;entryDy=0;" edge="1" parent="1" source="95eS8gWYD-RmjnxjiEU5-8" target="3UhIyN17JrQopI0e8cMA-12">
          <mxGeometry x="0.1407" y="-48" relative="1" as="geometry">
            <mxPoint x="220" y="560" as="sourcePoint" />
            <mxPoint x="314" y="380" as="targetPoint" />
            <Array as="points" />
            <mxPoint as="offset" />
          </mxGeometry>
        </mxCell>
        <mxCell id="95eS8gWYD-RmjnxjiEU5-10" value="&amp;lt;&amp;lt;extend&amp;gt;&amp;gt;" style="edgeLabel;resizable=0;html=1;;align=center;verticalAlign=middle;" connectable="0" vertex="1" parent="95eS8gWYD-RmjnxjiEU5-9">
          <mxGeometry relative="1" as="geometry" />
        </mxCell>
        <mxCell id="95eS8gWYD-RmjnxjiEU5-12" value="" style="endArrow=classic;html=1;rounded=0;dashed=1;entryX=0;entryY=0.5;entryDx=0;entryDy=0;exitX=1;exitY=0.5;exitDx=0;exitDy=0;" edge="1" parent="1" source="95eS8gWYD-RmjnxjiEU5-8" target="3UhIyN17JrQopI0e8cMA-10">
          <mxGeometry x="0.1407" y="-48" relative="1" as="geometry">
            <mxPoint x="160" y="410" as="sourcePoint" />
            <mxPoint x="272" y="430" as="targetPoint" />
            <Array as="points" />
            <mxPoint as="offset" />
          </mxGeometry>
        </mxCell>
        <mxCell id="95eS8gWYD-RmjnxjiEU5-13" value="&amp;lt;&amp;lt;extend&amp;gt;&amp;gt;" style="edgeLabel;resizable=0;html=1;;align=center;verticalAlign=middle;" connectable="0" vertex="1" parent="95eS8gWYD-RmjnxjiEU5-12">
          <mxGeometry relative="1" as="geometry" />
        </mxCell>
        <mxCell id="95eS8gWYD-RmjnxjiEU5-14" value="" style="endArrow=classic;html=1;rounded=0;dashed=1;exitX=0;exitY=0.5;exitDx=0;exitDy=0;entryX=0.5;entryY=0;entryDx=0;entryDy=0;" edge="1" parent="1" source="3UhIyN17JrQopI0e8cMA-11" target="95eS8gWYD-RmjnxjiEU5-1">
          <mxGeometry x="0.1407" y="-48" relative="1" as="geometry">
            <mxPoint x="315" y="156" as="sourcePoint" />
            <mxPoint x="200" y="290" as="targetPoint" />
            <Array as="points" />
            <mxPoint as="offset" />
          </mxGeometry>
        </mxCell>
        <mxCell id="95eS8gWYD-RmjnxjiEU5-15" value="&amp;lt;&amp;lt;include&amp;gt;&amp;gt;" style="edgeLabel;resizable=0;html=1;;align=center;verticalAlign=middle;" connectable="0" vertex="1" parent="95eS8gWYD-RmjnxjiEU5-14">
          <mxGeometry relative="1" as="geometry" />
        </mxCell>
      </root>
    </mxGraphModel>
  </diagram>
</mxfile>
